<svg version="1.2" xmlns="http://www.w3.org/2000/svg" viewBox="0 0 30 30" width="30" height="30"><style>.a{fill:#fff}</style><path class="a" d="m23.2 14.2q0.2 0.4 0.2 0.8 0 0.5-0.2 0.9-0.1 0.4-0.5 0.7l-12.3 12.4q-0.2 0.1-0.4 0.3-0.2 0.1-0.4 0.2-0.2 0.1-0.4 0.1-0.2 0-0.4 0-0.2 0-0.4 0-0.2 0-0.4-0.1-0.2-0.1-0.4-0.2-0.2-0.2-0.4-0.3-0.3-0.3-0.4-0.7-0.2-0.4-0.2-0.9 0-0.4 0.2-0.8 0.1-0.4 0.4-0.7l10.9-10.8-10.9-10.9q-0.3-0.4-0.4-0.8-0.2-0.4-0.2-0.8 0-0.4 0.2-0.8 0.1-0.4 0.4-0.7 0.4-0.3 0.8-0.5 0.4-0.2 0.8-0.2 0.4 0 0.8 0.2 0.4 0.2 0.8 0.5l12.3 12.3q0.4 0.3 0.5 0.8z"/></svg>